<svg width="448" height="156" viewBox="0 0 448 156" fill="none" xmlns="http://www.w3.org/2000/svg">
<path d="M33 72.1172V16H44.4297V82H34.1172L33 72.1172ZM3.13672 59.3125V58.4102C3.13672 54.8581 3.53776 51.6354 4.33984 48.7422C5.17057 45.8203 6.3737 43.3138 7.94922 41.2227C9.52474 39.1315 11.4297 37.513 13.6641 36.3672C15.9271 35.2214 18.4909 34.6484 21.3555 34.6484C24.1341 34.6484 26.5547 35.207 28.6172 36.3242C30.7083 37.4414 32.4844 39.0312 33.9453 41.0938C35.4349 43.1562 36.6237 45.6055 37.5117 48.4414C38.3997 51.2487 39.0443 54.3424 39.4453 57.7227V60.1719C39.0443 63.4661 38.3997 66.4883 37.5117 69.2383C36.6237 71.9883 35.4349 74.3945 33.9453 76.457C32.4844 78.4909 30.7083 80.0664 28.6172 81.1836C26.526 82.3008 24.0768 82.8594 21.2695 82.8594C18.4336 82.8594 15.8841 82.2721 13.6211 81.0977C11.3867 79.9232 9.48177 78.276 7.90625 76.1562C6.35938 74.0365 5.17057 71.5443 4.33984 68.6797C3.53776 65.8151 3.13672 62.6927 3.13672 59.3125ZM14.5234 58.4102V59.3125C14.5234 61.3177 14.6953 63.194 15.0391 64.9414C15.3828 66.6888 15.9414 68.2357 16.7148 69.582C17.4883 70.8997 18.4766 71.931 19.6797 72.6758C20.9115 73.4206 22.401 73.793 24.1484 73.793C26.3828 73.793 28.2161 73.306 29.6484 72.332C31.1094 71.3294 32.2409 69.9688 33.043 68.25C33.8451 66.5026 34.3607 64.5404 34.5898 62.3633V55.6172C34.4753 53.8984 34.1745 52.3086 33.6875 50.8477C33.2292 49.3867 32.5703 48.1263 31.7109 47.0664C30.8802 46.0065 29.849 45.1758 28.6172 44.5742C27.3854 43.9727 25.9245 43.6719 24.2344 43.6719C22.487 43.6719 20.9974 44.0586 19.7656 44.832C18.5339 45.5768 17.5312 46.6224 16.7578 47.9688C15.9844 49.3151 15.4115 50.8763 15.0391 52.6523C14.6953 54.4284 14.5234 56.3477 14.5234 58.4102ZM75.582 82.8594C72.0586 82.8594 68.8932 82.2865 66.0859 81.1406C63.2786 79.9948 60.8867 78.4049 58.9102 76.3711C56.9622 74.3086 55.4583 71.9167 54.3984 69.1953C53.3672 66.4453 52.8516 63.4948 52.8516 60.3438V58.625C52.8516 55.0443 53.3672 51.793 54.3984 48.8711C55.4297 45.9206 56.8906 43.3854 58.7812 41.2656C60.6719 39.1458 62.9349 37.513 65.5703 36.3672C68.2057 35.2214 71.1133 34.6484 74.293 34.6484C77.5872 34.6484 80.4948 35.207 83.0156 36.3242C85.5365 37.4128 87.6419 38.9596 89.332 40.9648C91.0221 42.9701 92.2969 45.3763 93.1562 48.1836C94.0156 50.9622 94.4453 54.0417 94.4453 57.4219V62.1914H58.0078V54.3711H83.2734V53.5117C83.2161 51.707 82.8724 50.0599 82.2422 48.5703C81.612 47.0521 80.638 45.849 79.3203 44.9609C78.0026 44.0443 76.2982 43.5859 74.207 43.5859C72.5169 43.5859 71.0417 43.9583 69.7812 44.7031C68.5495 45.4193 67.5182 46.4505 66.6875 47.7969C65.8854 49.1146 65.2839 50.6901 64.8828 52.5234C64.4818 54.3568 64.2812 56.3906 64.2812 58.625V60.3438C64.2812 62.2917 64.5391 64.0964 65.0547 65.7578C65.599 67.4193 66.3867 68.8659 67.418 70.0977C68.4779 71.3008 69.7383 72.2461 71.1992 72.9336C72.6888 73.5924 74.3789 73.9219 76.2695 73.9219C78.6471 73.9219 80.7956 73.4635 82.7148 72.5469C84.6628 71.6016 86.3529 70.2122 87.7852 68.3789L93.5 74.3086C92.526 75.7409 91.2083 77.1159 89.5469 78.4336C87.9141 79.7513 85.9375 80.8255 83.6172 81.6562C81.2969 82.4583 78.6185 82.8594 75.582 82.8594ZM114.082 16V82H102.695V16H114.082ZM146.91 35.5078V43.6719H120.27V35.5078H146.91ZM127.402 24.0781H138.789V68.5938C138.789 69.9688 138.975 71.0286 139.348 71.7734C139.72 72.5182 140.279 73.0195 141.023 73.2773C141.768 73.5352 142.656 73.6641 143.688 73.6641C144.432 73.6641 145.12 73.6211 145.75 73.5352C146.38 73.4492 146.91 73.3633 147.34 73.2773L147.383 81.7852C146.438 82.1003 145.363 82.3581 144.16 82.5586C142.986 82.7591 141.654 82.8594 140.164 82.8594C137.615 82.8594 135.38 82.4297 133.461 81.5703C131.542 80.6823 130.052 79.2643 128.992 77.3164C127.932 75.3398 127.402 72.7331 127.402 69.4961V24.0781ZM180.082 72.1172V50.6758C180.082 49.1003 179.81 47.7396 179.266 46.5938C178.721 45.4479 177.891 44.5599 176.773 43.9297C175.656 43.2995 174.238 42.9844 172.52 42.9844C171.001 42.9844 169.669 43.2422 168.523 43.7578C167.406 44.2734 166.547 45.0039 165.945 45.9492C165.344 46.8659 165.043 47.9258 165.043 49.1289H153.656C153.656 47.2096 154.115 45.3906 155.031 43.6719C155.948 41.9245 157.251 40.3776 158.941 39.0312C160.66 37.6562 162.708 36.582 165.086 35.8086C167.492 35.0352 170.185 34.6484 173.164 34.6484C176.688 34.6484 179.824 35.25 182.574 36.4531C185.353 37.6276 187.53 39.4036 189.105 41.7812C190.71 44.1589 191.512 47.1523 191.512 50.7617V71.043C191.512 73.3633 191.655 75.3542 191.941 77.0156C192.257 78.6484 192.715 80.0664 193.316 81.2695V82H181.758C181.214 80.8255 180.798 79.3359 180.512 77.5312C180.225 75.6979 180.082 73.8932 180.082 72.1172ZM181.672 53.6836L181.758 60.4297H174.582C172.806 60.4297 171.245 60.6159 169.898 60.9883C168.552 61.332 167.449 61.8477 166.59 62.5352C165.73 63.194 165.086 63.9961 164.656 64.9414C164.227 65.8581 164.012 66.9036 164.012 68.0781C164.012 69.224 164.27 70.2552 164.785 71.1719C165.329 72.0885 166.103 72.819 167.105 73.3633C168.137 73.8789 169.34 74.1367 170.715 74.1367C172.72 74.1367 174.467 73.7357 175.957 72.9336C177.447 72.1029 178.607 71.1003 179.438 69.9258C180.268 68.7513 180.712 67.6341 180.77 66.5742L184.035 71.4727C183.634 72.6471 183.033 73.8932 182.23 75.2109C181.428 76.5286 180.397 77.7604 179.137 78.9062C177.876 80.0521 176.358 80.9974 174.582 81.7422C172.806 82.487 170.743 82.8594 168.395 82.8594C165.387 82.8594 162.694 82.2578 160.316 81.0547C157.939 79.8516 156.062 78.2044 154.688 76.1133C153.312 74.0221 152.625 71.6445 152.625 68.9805C152.625 66.5169 153.083 64.3398 154 62.4492C154.917 60.5586 156.277 58.9688 158.082 57.6797C159.887 56.362 162.121 55.3737 164.785 54.7148C167.478 54.0273 170.557 53.6836 174.023 53.6836H181.672ZM213.77 16V82H202.383V16H213.77ZM246.598 35.5078V43.6719H219.957V35.5078H246.598ZM227.09 24.0781H238.477V68.5938C238.477 69.9688 238.663 71.0286 239.035 71.7734C239.408 72.5182 239.966 73.0195 240.711 73.2773C241.456 73.5352 242.344 73.6641 243.375 73.6641C244.12 73.6641 244.807 73.6211 245.438 73.5352C246.068 73.4492 246.598 73.3633 247.027 73.2773L247.07 81.7852C246.125 82.1003 245.051 82.3581 243.848 82.5586C242.673 82.7591 241.341 82.8594 239.852 82.8594C237.302 82.8594 235.068 82.4297 233.148 81.5703C231.229 80.6823 229.74 79.2643 228.68 77.3164C227.62 75.3398 227.09 72.7331 227.09 69.4961V24.0781ZM282.047 72.1172V16H293.477V82H283.164L282.047 72.1172ZM252.184 59.3125V58.4102C252.184 54.8581 252.585 51.6354 253.387 48.7422C254.217 45.8203 255.421 43.3138 256.996 41.2227C258.572 39.1315 260.477 37.513 262.711 36.3672C264.974 35.2214 267.538 34.6484 270.402 34.6484C273.181 34.6484 275.602 35.207 277.664 36.3242C279.755 37.4414 281.531 39.0312 282.992 41.0938C284.482 43.1562 285.671 45.6055 286.559 48.4414C287.447 51.2487 288.091 54.3424 288.492 57.7227V60.1719C288.091 63.4661 287.447 66.4883 286.559 69.2383C285.671 71.9883 284.482 74.3945 282.992 76.457C281.531 78.4909 279.755 80.0664 277.664 81.1836C275.573 82.3008 273.124 82.8594 270.316 82.8594C267.48 82.8594 264.931 82.2721 262.668 81.0977C260.434 79.9232 258.529 78.276 256.953 76.1562C255.406 74.0365 254.217 71.5443 253.387 68.6797C252.585 65.8151 252.184 62.6927 252.184 59.3125ZM263.57 58.4102V59.3125C263.57 61.3177 263.742 63.194 264.086 64.9414C264.43 66.6888 264.988 68.2357 265.762 69.582C266.535 70.8997 267.523 71.931 268.727 72.6758C269.958 73.4206 271.448 73.793 273.195 73.793C275.43 73.793 277.263 73.306 278.695 72.332C280.156 71.3294 281.288 69.9688 282.09 68.25C282.892 66.5026 283.408 64.5404 283.637 62.3633V55.6172C283.522 53.8984 283.221 52.3086 282.734 50.8477C282.276 49.3867 281.617 48.1263 280.758 47.0664C279.927 46.0065 278.896 45.1758 277.664 44.5742C276.432 43.9727 274.971 43.6719 273.281 43.6719C271.534 43.6719 270.044 44.0586 268.812 44.832C267.581 45.5768 266.578 46.6224 265.805 47.9688C265.031 49.3151 264.458 50.8763 264.086 52.6523C263.742 54.4284 263.57 56.3477 263.57 58.4102ZM304.219 76.457C304.219 74.7383 304.806 73.2917 305.98 72.1172C307.155 70.9427 308.745 70.3555 310.75 70.3555C312.755 70.3555 314.345 70.9427 315.52 72.1172C316.694 73.2917 317.281 74.7383 317.281 76.457C317.281 78.1471 316.694 79.5794 315.52 80.7539C314.345 81.8997 312.755 82.4727 310.75 82.4727C308.745 82.4727 307.155 81.8997 305.98 80.7539C304.806 79.5794 304.219 78.1471 304.219 76.457ZM354.363 72.1172V50.6758C354.363 49.1003 354.091 47.7396 353.547 46.5938C353.003 45.4479 352.172 44.5599 351.055 43.9297C349.938 43.2995 348.52 42.9844 346.801 42.9844C345.283 42.9844 343.951 43.2422 342.805 43.7578C341.688 44.2734 340.828 45.0039 340.227 45.9492C339.625 46.8659 339.324 47.9258 339.324 49.1289H327.938C327.938 47.2096 328.396 45.3906 329.312 43.6719C330.229 41.9245 331.533 40.3776 333.223 39.0312C334.941 37.6562 336.99 36.582 339.367 35.8086C341.773 35.0352 344.466 34.6484 347.445 34.6484C350.969 34.6484 354.105 35.25 356.855 36.4531C359.634 37.6276 361.811 39.4036 363.387 41.7812C364.991 44.1589 365.793 47.1523 365.793 50.7617V71.043C365.793 73.3633 365.936 75.3542 366.223 77.0156C366.538 78.6484 366.996 80.0664 367.598 81.2695V82H356.039C355.495 80.8255 355.079 79.3359 354.793 77.5312C354.507 75.6979 354.363 73.8932 354.363 72.1172ZM355.953 53.6836L356.039 60.4297H348.863C347.087 60.4297 345.526 60.6159 344.18 60.9883C342.833 61.332 341.73 61.8477 340.871 62.5352C340.012 63.194 339.367 63.9961 338.938 64.9414C338.508 65.8581 338.293 66.9036 338.293 68.0781C338.293 69.224 338.551 70.2552 339.066 71.1719C339.611 72.0885 340.384 72.819 341.387 73.3633C342.418 73.8789 343.621 74.1367 344.996 74.1367C347.001 74.1367 348.749 73.7357 350.238 72.9336C351.728 72.1029 352.888 71.1003 353.719 69.9258C354.549 68.7513 354.993 67.6341 355.051 66.5742L358.316 71.4727C357.915 72.6471 357.314 73.8932 356.512 75.2109C355.71 76.5286 354.678 77.7604 353.418 78.9062C352.158 80.0521 350.639 80.9974 348.863 81.7422C347.087 82.487 345.025 82.8594 342.676 82.8594C339.668 82.8594 336.975 82.2578 334.598 81.0547C332.22 79.8516 330.344 78.2044 328.969 76.1133C327.594 74.0221 326.906 71.6445 326.906 68.9805C326.906 66.5169 327.365 64.3398 328.281 62.4492C329.198 60.5586 330.559 58.9688 332.363 57.6797C334.168 56.362 336.402 55.3737 339.066 54.7148C341.759 54.0273 344.839 53.6836 348.305 53.6836H355.953ZM387.32 45.0469V82H375.977V35.5078H386.676L387.32 45.0469ZM385.645 57.0781H382.164C382.164 53.8411 382.551 50.862 383.324 48.1406C384.126 45.4193 385.301 43.056 386.848 41.0508C388.395 39.0169 390.299 37.4414 392.562 36.3242C394.854 35.207 397.504 34.6484 400.512 34.6484C402.603 34.6484 404.522 34.9635 406.27 35.5938C408.017 36.1953 409.521 37.1549 410.781 38.4727C412.07 39.7617 413.059 41.4518 413.746 43.543C414.434 45.6055 414.777 48.0833 414.777 50.9766V82H403.434V52.1367C403.434 49.9596 403.118 48.2552 402.488 47.0234C401.887 45.7917 401.013 44.9323 399.867 44.4453C398.721 43.9297 397.346 43.6719 395.742 43.6719C393.966 43.6719 392.434 44.0299 391.145 44.7461C389.884 45.4336 388.839 46.3932 388.008 47.625C387.206 48.8568 386.604 50.2747 386.203 51.8789C385.831 53.4831 385.645 55.2161 385.645 57.0781ZM413.918 54.9727L409.234 55.832C409.263 52.9102 409.664 50.1745 410.438 47.625C411.211 45.0469 412.342 42.7982 413.832 40.8789C415.35 38.931 417.227 37.4128 419.461 36.3242C421.724 35.207 424.331 34.6484 427.281 34.6484C429.573 34.6484 431.635 34.9779 433.469 35.6367C435.331 36.2669 436.921 37.2839 438.238 38.6875C439.556 40.0625 440.559 41.8529 441.246 44.0586C441.962 46.2643 442.32 48.957 442.32 52.1367V82H430.891V52.0938C430.891 49.8307 430.576 48.0977 429.945 46.8945C429.344 45.6914 428.47 44.8607 427.324 44.4023C426.178 43.9154 424.832 43.6719 423.285 43.6719C421.71 43.6719 420.335 43.9727 419.16 44.5742C418.014 45.1471 417.04 45.9492 416.238 46.9805C415.465 48.0117 414.878 49.2148 414.477 50.5898C414.104 51.9362 413.918 53.3971 413.918 54.9727Z" fill="white"/>
<path d="M165.551 107.492L153.656 142H146.465L161.449 102.188H166.043L165.551 107.492ZM175.504 142L163.582 107.492L163.062 102.188H167.684L182.723 142H175.504ZM174.93 127.234V132.676H153.273V127.234H174.93ZM204.57 135.875V100H211.188V142H205.199L204.57 135.875ZM185.32 127.535V126.961C185.32 124.719 185.585 122.677 186.113 120.836C186.642 118.977 187.408 117.382 188.41 116.051C189.413 114.702 190.634 113.672 192.074 112.961C193.514 112.232 195.137 111.867 196.941 111.867C198.728 111.867 200.296 112.214 201.645 112.906C202.993 113.599 204.142 114.592 205.09 115.887C206.038 117.163 206.794 118.694 207.359 120.48C207.924 122.249 208.326 124.217 208.562 126.387V128.219C208.326 130.333 207.924 132.266 207.359 134.016C206.794 135.766 206.038 137.279 205.09 138.555C204.142 139.831 202.984 140.815 201.617 141.508C200.268 142.201 198.691 142.547 196.887 142.547C195.1 142.547 193.487 142.173 192.047 141.426C190.625 140.678 189.413 139.63 188.41 138.281C187.408 136.932 186.642 135.346 186.113 133.523C185.585 131.682 185.32 129.686 185.32 127.535ZM191.91 126.961V127.535C191.91 128.884 192.029 130.142 192.266 131.309C192.521 132.475 192.913 133.505 193.441 134.398C193.97 135.273 194.654 135.966 195.492 136.477C196.349 136.969 197.37 137.215 198.555 137.215C200.049 137.215 201.28 136.887 202.246 136.23C203.212 135.574 203.969 134.69 204.516 133.578C205.081 132.448 205.464 131.19 205.664 129.805V124.855C205.555 123.78 205.327 122.777 204.98 121.848C204.652 120.918 204.206 120.107 203.641 119.414C203.076 118.703 202.374 118.156 201.535 117.773C200.715 117.372 199.74 117.172 198.609 117.172C197.406 117.172 196.385 117.427 195.547 117.938C194.708 118.448 194.016 119.15 193.469 120.043C192.94 120.936 192.548 121.975 192.293 123.16C192.038 124.345 191.91 125.612 191.91 126.961ZM224.668 118.43V142H218.078V112.414H224.285L224.668 118.43ZM223.602 126.113L221.359 126.086C221.359 124.044 221.615 122.158 222.125 120.426C222.635 118.694 223.383 117.19 224.367 115.914C225.352 114.62 226.573 113.626 228.031 112.934C229.508 112.223 231.212 111.867 233.145 111.867C234.493 111.867 235.724 112.068 236.836 112.469C237.966 112.852 238.941 113.462 239.762 114.301C240.6 115.139 241.238 116.215 241.676 117.527C242.132 118.84 242.359 120.426 242.359 122.285V142H235.77V122.859C235.77 121.419 235.551 120.289 235.113 119.469C234.694 118.648 234.083 118.065 233.281 117.719C232.497 117.354 231.559 117.172 230.465 117.172C229.225 117.172 228.168 117.409 227.293 117.883C226.436 118.357 225.734 119.004 225.188 119.824C224.641 120.645 224.24 121.592 223.984 122.668C223.729 123.743 223.602 124.892 223.602 126.113ZM241.949 124.363L238.859 125.047C238.859 123.26 239.105 121.574 239.598 119.988C240.108 118.384 240.846 116.98 241.812 115.777C242.797 114.556 244.009 113.599 245.449 112.906C246.889 112.214 248.539 111.867 250.398 111.867C251.911 111.867 253.26 112.077 254.445 112.496C255.648 112.897 256.669 113.535 257.508 114.41C258.346 115.285 258.984 116.424 259.422 117.828C259.859 119.214 260.078 120.891 260.078 122.859V142H253.461V122.832C253.461 121.337 253.242 120.18 252.805 119.359C252.385 118.539 251.784 117.974 251 117.664C250.216 117.336 249.277 117.172 248.184 117.172C247.163 117.172 246.26 117.363 245.477 117.746C244.711 118.111 244.064 118.63 243.535 119.305C243.007 119.961 242.605 120.717 242.332 121.574C242.077 122.431 241.949 123.361 241.949 124.363ZM273.914 112.414V142H267.297V112.414H273.914ZM266.859 104.648C266.859 103.646 267.188 102.816 267.844 102.16C268.518 101.486 269.448 101.148 270.633 101.148C271.799 101.148 272.72 101.486 273.395 102.16C274.069 102.816 274.406 103.646 274.406 104.648C274.406 105.633 274.069 106.453 273.395 107.109C272.72 107.766 271.799 108.094 270.633 108.094C269.448 108.094 268.518 107.766 267.844 107.109C267.188 106.453 266.859 105.633 266.859 104.648ZM287.668 118.73V142H281.078V112.414H287.285L287.668 118.73ZM286.492 126.113L284.359 126.086C284.378 123.99 284.669 122.066 285.234 120.316C285.818 118.566 286.62 117.062 287.641 115.805C288.68 114.547 289.919 113.581 291.359 112.906C292.799 112.214 294.404 111.867 296.172 111.867C297.594 111.867 298.879 112.068 300.027 112.469C301.194 112.852 302.188 113.48 303.008 114.355C303.846 115.23 304.484 116.37 304.922 117.773C305.359 119.159 305.578 120.863 305.578 122.887V142H298.961V122.859C298.961 121.438 298.751 120.316 298.332 119.496C297.931 118.658 297.339 118.065 296.555 117.719C295.789 117.354 294.832 117.172 293.684 117.172C292.553 117.172 291.542 117.409 290.648 117.883C289.755 118.357 288.999 119.004 288.379 119.824C287.777 120.645 287.312 121.592 286.984 122.668C286.656 123.743 286.492 124.892 286.492 126.113ZM339.812 112.414V117.227H323.133V112.414H339.812ZM327.945 105.168H334.535V133.824C334.535 134.736 334.663 135.438 334.918 135.93C335.191 136.404 335.565 136.723 336.039 136.887C336.513 137.051 337.069 137.133 337.707 137.133C338.163 137.133 338.6 137.105 339.02 137.051C339.439 136.996 339.776 136.941 340.031 136.887L340.059 141.918C339.512 142.082 338.874 142.228 338.145 142.355C337.434 142.483 336.613 142.547 335.684 142.547C334.171 142.547 332.831 142.283 331.664 141.754C330.497 141.207 329.586 140.323 328.93 139.102C328.273 137.88 327.945 136.258 327.945 134.234V105.168ZM342.984 127.535V126.906C342.984 124.773 343.294 122.796 343.914 120.973C344.534 119.132 345.427 117.536 346.594 116.188C347.779 114.82 349.219 113.763 350.914 113.016C352.628 112.25 354.56 111.867 356.711 111.867C358.88 111.867 360.812 112.25 362.508 113.016C364.221 113.763 365.671 114.82 366.855 116.188C368.04 117.536 368.943 119.132 369.562 120.973C370.182 122.796 370.492 124.773 370.492 126.906V127.535C370.492 129.668 370.182 131.646 369.562 133.469C368.943 135.292 368.04 136.887 366.855 138.254C365.671 139.603 364.23 140.66 362.535 141.426C360.84 142.173 358.917 142.547 356.766 142.547C354.596 142.547 352.655 142.173 350.941 141.426C349.246 140.66 347.806 139.603 346.621 138.254C345.436 136.887 344.534 135.292 343.914 133.469C343.294 131.646 342.984 129.668 342.984 127.535ZM349.574 126.906V127.535C349.574 128.866 349.711 130.124 349.984 131.309C350.258 132.493 350.686 133.533 351.27 134.426C351.853 135.319 352.6 136.021 353.512 136.531C354.423 137.042 355.508 137.297 356.766 137.297C357.987 137.297 359.044 137.042 359.938 136.531C360.849 136.021 361.596 135.319 362.18 134.426C362.763 133.533 363.191 132.493 363.465 131.309C363.757 130.124 363.902 128.866 363.902 127.535V126.906C363.902 125.594 363.757 124.354 363.465 123.188C363.191 122.003 362.754 120.954 362.152 120.043C361.569 119.132 360.822 118.421 359.91 117.91C359.017 117.382 357.951 117.117 356.711 117.117C355.471 117.117 354.396 117.382 353.484 117.91C352.591 118.421 351.853 119.132 351.27 120.043C350.686 120.954 350.258 122.003 349.984 123.188C349.711 124.354 349.574 125.594 349.574 126.906ZM374.758 127.535V126.906C374.758 124.773 375.068 122.796 375.688 120.973C376.307 119.132 377.201 117.536 378.367 116.188C379.552 114.82 380.992 113.763 382.688 113.016C384.401 112.25 386.333 111.867 388.484 111.867C390.654 111.867 392.586 112.25 394.281 113.016C395.995 113.763 397.444 114.82 398.629 116.188C399.814 117.536 400.716 119.132 401.336 120.973C401.956 122.796 402.266 124.773 402.266 126.906V127.535C402.266 129.668 401.956 131.646 401.336 133.469C400.716 135.292 399.814 136.887 398.629 138.254C397.444 139.603 396.004 140.66 394.309 141.426C392.613 142.173 390.69 142.547 388.539 142.547C386.37 142.547 384.428 142.173 382.715 141.426C381.02 140.66 379.579 139.603 378.395 138.254C377.21 136.887 376.307 135.292 375.688 133.469C375.068 131.646 374.758 129.668 374.758 127.535ZM381.348 126.906V127.535C381.348 128.866 381.484 130.124 381.758 131.309C382.031 132.493 382.46 133.533 383.043 134.426C383.626 135.319 384.374 136.021 385.285 136.531C386.197 137.042 387.281 137.297 388.539 137.297C389.76 137.297 390.818 137.042 391.711 136.531C392.622 136.021 393.37 135.319 393.953 134.426C394.536 133.533 394.965 132.493 395.238 131.309C395.53 130.124 395.676 128.866 395.676 127.535V126.906C395.676 125.594 395.53 124.354 395.238 123.188C394.965 122.003 394.527 120.954 393.926 120.043C393.342 119.132 392.595 118.421 391.684 117.91C390.79 117.382 389.724 117.117 388.484 117.117C387.245 117.117 386.169 117.382 385.258 117.91C384.365 118.421 383.626 119.132 383.043 120.043C382.46 120.954 382.031 122.003 381.758 123.188C381.484 124.354 381.348 125.594 381.348 126.906ZM414.844 100V142H408.227V100H414.844ZM438.66 133.988C438.66 133.332 438.496 132.74 438.168 132.211C437.84 131.664 437.211 131.172 436.281 130.734C435.37 130.297 434.021 129.896 432.234 129.531C430.667 129.185 429.227 128.775 427.914 128.301C426.62 127.809 425.508 127.216 424.578 126.523C423.648 125.831 422.928 125.01 422.418 124.062C421.908 123.115 421.652 122.021 421.652 120.781C421.652 119.578 421.917 118.439 422.445 117.363C422.974 116.288 423.73 115.34 424.715 114.52C425.699 113.699 426.893 113.052 428.297 112.578C429.719 112.104 431.305 111.867 433.055 111.867C435.534 111.867 437.658 112.286 439.426 113.125C441.212 113.945 442.579 115.066 443.527 116.488C444.475 117.892 444.949 119.478 444.949 121.246H438.359C438.359 120.462 438.159 119.733 437.758 119.059C437.375 118.366 436.792 117.81 436.008 117.391C435.224 116.953 434.24 116.734 433.055 116.734C431.924 116.734 430.986 116.917 430.238 117.281C429.509 117.628 428.962 118.083 428.598 118.648C428.251 119.214 428.078 119.833 428.078 120.508C428.078 121 428.169 121.447 428.352 121.848C428.552 122.23 428.88 122.586 429.336 122.914C429.792 123.224 430.411 123.516 431.195 123.789C431.997 124.062 433 124.327 434.203 124.582C436.464 125.056 438.405 125.667 440.027 126.414C441.668 127.143 442.926 128.091 443.801 129.258C444.676 130.406 445.113 131.865 445.113 133.633C445.113 134.945 444.831 136.148 444.266 137.242C443.719 138.318 442.917 139.257 441.859 140.059C440.802 140.842 439.535 141.453 438.059 141.891C436.6 142.328 434.96 142.547 433.137 142.547C430.457 142.547 428.188 142.073 426.328 141.125C424.469 140.159 423.056 138.928 422.09 137.434C421.142 135.921 420.668 134.353 420.668 132.73H427.039C427.112 133.952 427.449 134.927 428.051 135.656C428.671 136.367 429.436 136.887 430.348 137.215C431.277 137.525 432.234 137.68 433.219 137.68C434.404 137.68 435.397 137.525 436.199 137.215C437.001 136.887 437.612 136.449 438.031 135.902C438.451 135.337 438.66 134.699 438.66 133.988Z" fill="white"/>
</svg>
