<svg width="74" height="74" viewBox="0 0 74 74" fill="none" xmlns="http://www.w3.org/2000/svg">
<path d="M29.6722 20.045C29.6722 20.5312 29.4791 20.9975 29.1353 21.3413C28.7914 21.6851 28.3251 21.8783 27.8389 21.8783C27.3527 21.8783 26.8864 21.6851 26.5425 21.3413C26.1987 20.9975 26.0056 20.5312 26.0056 20.045C26.0056 19.5587 26.1987 19.0924 26.5425 18.7486C26.8864 18.4048 27.3527 18.2116 27.8389 18.2116C28.3251 18.2116 28.7914 18.4048 29.1353 18.7486C29.4791 19.0924 29.6722 19.5587 29.6722 20.045ZM23.2922 20.7526C23.5354 20.7526 23.7685 20.6561 23.9404 20.4842C24.1123 20.3122 24.2089 20.0791 24.2089 19.836C24.2089 19.5929 24.1123 19.3597 23.9404 19.1878C23.7685 19.0159 23.5354 18.9193 23.2922 18.9193C23.0491 18.9193 22.816 19.0159 22.6441 19.1878C22.4721 19.3597 22.3756 19.5929 22.3756 19.836C22.3756 20.0791 22.4721 20.3122 22.6441 20.4842C22.816 20.6561 23.0491 20.7526 23.2922 20.7526ZM27.0817 24.456C27.0817 24.6991 26.9852 24.9322 26.8133 25.1042C26.6413 25.2761 26.4082 25.3726 26.1651 25.3726C25.922 25.3726 25.6888 25.2761 25.5169 25.1042C25.345 24.9322 25.2484 24.6991 25.2484 24.456C25.2484 24.2129 25.345 23.9797 25.5169 23.8078C25.6888 23.6359 25.922 23.5393 26.1651 23.5393C26.4082 23.5393 26.6413 23.6359 26.8133 23.8078C26.9852 23.9797 27.0817 24.2129 27.0817 24.456ZM39.8564 46.5311C40.3426 46.5311 40.809 46.338 41.1528 45.9942C41.4966 45.6504 41.6897 45.184 41.6897 44.6978C41.6897 44.2116 41.4966 43.7453 41.1528 43.4014C40.809 43.0576 40.3426 42.8645 39.8564 42.8645C39.3702 42.8645 38.9039 43.0576 38.56 43.4014C38.2162 43.7453 38.0231 44.2116 38.0231 44.6978C38.0231 45.184 38.2162 45.6504 38.56 45.9942C38.9039 46.338 39.3702 46.5311 39.8564 46.5311ZM45.9412 44.5236C45.9412 44.6327 45.9198 44.7407 45.878 44.8415C45.8363 44.9422 45.7751 45.0338 45.698 45.1109C45.6209 45.188 45.5293 45.2492 45.4286 45.2909C45.3278 45.3327 45.2198 45.3541 45.1107 45.3541C45.0017 45.3541 44.8937 45.3327 44.7929 45.2909C44.6922 45.2492 44.6006 45.188 44.5235 45.1109C44.4464 45.0338 44.3852 44.9422 44.3435 44.8415C44.3017 44.7407 44.2802 44.6327 44.2802 44.5236C44.2802 44.3034 44.3677 44.0921 44.5235 43.9364C44.6792 43.7806 44.8905 43.6931 45.1107 43.6931C45.331 43.6931 45.5422 43.7806 45.698 43.9364C45.8537 44.0921 45.9412 44.3034 45.9412 44.5236ZM42.6706 18.9596C43.1568 18.9596 43.6231 18.7665 43.9669 18.4227C44.3108 18.0788 44.5039 17.6125 44.5039 17.1263C44.5039 16.6401 44.3108 16.1738 43.9669 15.8299C43.6231 15.4861 43.1568 15.293 42.6706 15.293C42.1843 15.293 41.718 15.4861 41.3742 15.8299C41.0304 16.1738 40.8372 16.6401 40.8372 17.1263C40.8372 17.6125 41.0304 18.0788 41.3742 18.4227C41.718 18.7665 42.1843 18.9596 42.6706 18.9596ZM48.9039 20.243C48.9039 20.5833 48.7687 20.9098 48.528 21.1504C48.2874 21.3911 47.9609 21.5263 47.6206 21.5263C47.2802 21.5263 46.9538 21.3911 46.7131 21.1504C46.4724 20.9098 46.3372 20.5833 46.3372 20.243C46.3372 19.9026 46.4724 19.5762 46.7131 19.3355C46.9538 19.0948 47.2802 18.9596 47.6206 18.9596C47.9609 18.9596 48.2874 19.0948 48.528 19.3355C48.7687 19.5762 48.9039 19.9026 48.9039 20.243ZM20.6082 49.1876C21.0945 49.1876 21.5608 48.9945 21.9046 48.6507C22.2484 48.3069 22.4416 47.8405 22.4416 47.3543C22.4416 46.8681 22.2484 46.4018 21.9046 46.0579C21.5608 45.7141 21.0945 45.521 20.6082 45.521C20.122 45.521 19.6557 45.7141 19.3119 46.0579C18.9681 46.4018 18.7749 46.8681 18.7749 47.3543C18.7749 47.8405 18.9681 48.3069 19.3119 48.6507C19.6557 48.9945 20.122 49.1876 20.6082 49.1876ZM21.7614 43.2971C21.7614 43.5176 21.6738 43.7291 21.5179 43.885C21.362 44.041 21.1505 44.1286 20.93 44.1286C20.7095 44.1286 20.498 44.041 20.3421 43.885C20.1862 43.7291 20.0986 43.5176 20.0986 43.2971C20.0986 43.0769 20.1861 42.8656 20.3418 42.7099C20.4976 42.5541 20.7088 42.4666 20.9291 42.4666C21.1493 42.4666 21.3606 42.5541 21.5163 42.7099C21.6721 42.8656 21.7596 43.0769 21.7596 43.2971H21.7614ZM25.5087 48.2966C25.8491 48.2966 26.1755 48.1614 26.4162 47.9208C26.6569 47.6801 26.7921 47.3537 26.7921 47.0133C26.7921 46.6729 26.6569 46.3465 26.4162 46.1059C26.1755 45.8652 25.8491 45.73 25.5087 45.73C25.1684 45.73 24.842 45.8652 24.6013 46.1059C24.3606 46.3465 24.2254 46.6729 24.2254 47.0133C24.2254 47.3537 24.3606 47.6801 24.6013 47.9208C24.842 48.1614 25.1684 48.2966 25.5087 48.2966Z" fill="white"/>
<path fill-rule="evenodd" clip-rule="evenodd" d="M73.6667 36.9997C73.6667 57.2506 57.251 73.6663 37 73.6663C16.749 73.6663 0.333374 57.2506 0.333374 36.9997C0.333374 16.7487 16.749 0.333008 37 0.333008C57.251 0.333008 73.6667 16.7487 73.6667 36.9997ZM24.8835 30.5115C19.2534 34.8638 12.9339 36.1215 10.7705 33.322C8.6072 30.5225 11.4177 24.7237 17.0497 20.3732C22.6799 16.0208 28.9994 14.7632 31.1645 17.5627C33.3279 20.3622 30.5155 26.161 24.8835 30.5115ZM58.1768 55.4925C59.9863 52.4968 56.569 47.1197 50.5428 43.4805C44.5167 39.8432 38.1679 39.3225 36.3584 42.3182C34.5489 45.3138 37.968 50.691 43.9924 54.3301C50.0185 57.9675 56.3692 58.4881 58.1787 55.4925H58.1768ZM52.4128 21.7647C55.4287 28.2143 55.2765 34.6603 52.0682 36.16C48.8617 37.6597 43.8182 33.6483 40.7987 27.195C37.781 20.7453 37.935 14.3012 41.1415 12.8015C44.3499 11.3 49.3952 15.3132 52.4128 21.7647ZM30.7722 63.858C34.008 62.2318 33.9787 55.6373 30.708 49.1308C27.4374 42.6243 22.1629 38.668 18.927 40.2942C15.693 41.9203 15.7224 48.513 18.993 55.0213C22.2637 61.526 27.5364 65.4841 30.7722 63.858Z" fill="white"/>
</svg>
