<svg width="63" height="60" viewBox="0 0 63 60" fill="none" xmlns="http://www.w3.org/2000/svg">
<path d="M24.939 16.5134C24.939 16.9002 24.7761 17.2711 24.486 17.5446C24.196 17.8181 23.8025 17.9717 23.3923 17.9717C22.9821 17.9717 22.5887 17.8181 22.2986 17.5446C22.0086 17.2711 21.8456 16.9002 21.8456 16.5134C21.8456 16.1266 22.0086 15.7557 22.2986 15.4822C22.5887 15.2087 22.9821 15.0551 23.3923 15.0551C23.8025 15.0551 24.196 15.2087 24.486 15.4822C24.7761 15.7557 24.939 16.1266 24.939 16.5134ZM19.5565 17.0763C19.7616 17.0763 19.9583 16.9995 20.1033 16.8627C20.2484 16.726 20.3298 16.5405 20.3298 16.3471C20.3298 16.1538 20.2484 15.9683 20.1033 15.8316C19.9583 15.6948 19.7616 15.618 19.5565 15.618C19.3514 15.618 19.1547 15.6948 19.0096 15.8316C18.8646 15.9683 18.7831 16.1538 18.7831 16.3471C18.7831 16.5405 18.8646 16.726 19.0096 16.8627C19.1547 16.9995 19.3514 17.0763 19.5565 17.0763ZM22.7535 20.0222C22.7535 20.2155 22.6721 20.401 22.527 20.5377C22.382 20.6745 22.1853 20.7513 21.9802 20.7513C21.7751 20.7513 21.5784 20.6745 21.4333 20.5377C21.2883 20.401 21.2068 20.2155 21.2068 20.0222C21.2068 19.8288 21.2883 19.6433 21.4333 19.5066C21.5784 19.3698 21.7751 19.293 21.9802 19.293C22.1853 19.293 22.382 19.3698 22.527 19.5066C22.6721 19.6433 22.7535 19.8288 22.7535 20.0222ZM33.5311 37.5819C33.9413 37.5819 34.3347 37.4283 34.6248 37.1548C34.9148 36.8813 35.0778 36.5104 35.0778 36.1236C35.0778 35.7368 34.9148 35.3659 34.6248 35.0924C34.3347 34.8189 33.9413 34.6653 33.5311 34.6653C33.1208 34.6653 32.7274 34.8189 32.4374 35.0924C32.1473 35.3659 31.9843 35.7368 31.9843 36.1236C31.9843 36.5104 32.1473 36.8813 32.4374 37.1548C32.7274 37.4283 33.1208 37.5819 33.5311 37.5819ZM38.6646 35.9851C38.6646 36.0718 38.6465 36.1577 38.6113 36.2379C38.5761 36.318 38.5245 36.3909 38.4594 36.4522C38.3943 36.5135 38.3171 36.5622 38.2321 36.5954C38.1471 36.6286 38.056 36.6457 37.964 36.6457C37.8719 36.6457 37.7808 36.6286 37.6958 36.5954C37.6108 36.5622 37.5336 36.5135 37.4685 36.4522C37.4035 36.3909 37.3518 36.318 37.3166 36.2379C37.2814 36.1577 37.2633 36.0718 37.2633 35.9851C37.2633 35.8099 37.3371 35.6418 37.4685 35.5179C37.5999 35.394 37.7781 35.3244 37.964 35.3244C38.1498 35.3244 38.328 35.394 38.4594 35.5179C38.5908 35.6418 38.6646 35.8099 38.6646 35.9851ZM35.9053 15.6501C36.3155 15.6501 36.7089 15.4964 36.999 15.2229C37.289 14.9494 37.452 14.5785 37.452 14.1917C37.452 13.805 37.289 13.434 36.999 13.1605C36.7089 12.887 36.3155 12.7334 35.9053 12.7334C35.4951 12.7334 35.1016 12.887 34.8116 13.1605C34.5215 13.434 34.3586 13.805 34.3586 14.1917C34.3586 14.5785 34.5215 14.9494 34.8116 15.2229C35.1016 15.4964 35.4951 15.6501 35.9053 15.6501ZM41.1641 16.6709C41.1641 16.9416 41.05 17.2013 40.847 17.3927C40.644 17.5842 40.3686 17.6917 40.0814 17.6917C39.7943 17.6917 39.5189 17.5842 39.3158 17.3927C39.1128 17.2013 38.9987 16.9416 38.9987 16.6709C38.9987 16.4002 39.1128 16.1405 39.3158 15.9491C39.5189 15.7576 39.7943 15.6501 40.0814 15.6501C40.3686 15.6501 40.644 15.7576 40.847 15.9491C41.05 16.1405 41.1641 16.4002 41.1641 16.6709ZM17.2921 39.6951C17.7023 39.6951 18.0957 39.5414 18.3858 39.2679C18.6758 38.9944 18.8388 38.6235 18.8388 38.2367C18.8388 37.85 18.6758 37.479 18.3858 37.2055C18.0957 36.932 17.7023 36.7784 17.2921 36.7784C16.8819 36.7784 16.4885 36.932 16.1984 37.2055C15.9083 37.479 15.7454 37.85 15.7454 38.2367C15.7454 38.6235 15.9083 38.9944 16.1984 39.2679C16.4885 39.5414 16.8819 39.6951 17.2921 39.6951ZM18.265 35.0094C18.265 35.1848 18.1911 35.3531 18.0595 35.4771C17.928 35.6011 17.7496 35.6708 17.5635 35.6708C17.3775 35.6708 17.1991 35.6011 17.0675 35.4771C16.936 35.3531 16.8621 35.1848 16.8621 35.0094C16.8621 34.8342 16.9359 34.6662 17.0673 34.5423C17.1987 34.4184 17.3769 34.3488 17.5628 34.3488C17.7486 34.3488 17.9268 34.4184 18.0582 34.5423C18.1896 34.6662 18.2634 34.8342 18.2634 35.0094H18.265ZM21.4265 38.9863C21.7136 38.9863 21.989 38.8788 22.192 38.6873C22.3951 38.4959 22.5092 38.2362 22.5092 37.9655C22.5092 37.6947 22.3951 37.4351 22.192 37.2436C21.989 37.0522 21.7136 36.9447 21.4265 36.9447C21.1393 36.9447 20.8639 37.0522 20.6609 37.2436C20.4578 37.4351 20.3438 37.6947 20.3438 37.9655C20.3438 38.2362 20.4578 38.4959 20.6609 38.6873C20.8639 38.8788 21.1393 38.9863 21.4265 38.9863Z" fill="white"/>
<path fill-rule="evenodd" clip-rule="evenodd" d="M62.0555 29.9997C62.0555 46.1084 48.2062 59.1663 31.1212 59.1663C14.0362 59.1663 0.18689 46.1084 0.18689 29.9997C0.18689 13.8909 14.0362 0.833008 31.1212 0.833008C48.2062 0.833008 62.0555 13.8909 62.0555 29.9997ZM20.899 24.8386C16.149 28.3007 10.8175 29.3011 8.99235 27.0742C7.16722 24.8474 9.53834 20.2347 14.2899 16.774C19.0398 13.312 24.3713 12.3115 26.198 14.5384C28.0231 16.7653 25.6505 21.378 20.899 24.8386ZM48.9873 44.7099C50.5139 42.327 47.6309 38.0497 42.5468 35.1549C37.4628 32.2615 32.1065 31.8474 30.5799 34.2303C29.0533 36.6132 31.9379 40.8905 37.0204 43.7853C42.1045 46.6786 47.4623 47.0928 48.9889 44.7099H48.9873ZM44.1245 17.8809C46.6688 23.0113 46.5404 28.1388 43.8337 29.3317C41.1285 30.5247 36.8735 27.3338 34.326 22.2005C31.7801 17.0701 31.91 11.944 34.6153 10.7511C37.322 9.55675 41.5786 12.749 44.1245 17.8809ZM25.867 51.3642C28.597 50.0707 28.5722 44.8251 25.8129 39.6494C23.0535 34.4738 18.6036 31.3267 15.8737 32.6203C13.1453 33.9138 13.17 39.158 15.9294 44.3351C18.6887 49.5092 23.1371 52.6578 25.867 51.3642Z" fill="white"/>
</svg>
