<svg width="48" height="48" viewBox="0 0 48 48" fill="none" xmlns="http://www.w3.org/2000/svg">
<path d="M35.6587 32.798L44.1289 41.2497L41.3305 44.0426L32.8623 35.5889C29.7114 38.1099 25.7922 39.481 21.7539 39.4753C11.9289 39.4753 3.95508 31.517 3.95508 21.7113C3.95508 11.9055 11.9289 3.94727 21.7539 3.94727C31.5788 3.94727 39.5526 11.9055 39.5526 21.7113C39.5584 25.7417 38.1845 29.6532 35.6587 32.798ZM31.6915 31.3334C34.2014 28.7574 35.603 25.3044 35.5974 21.7113C35.5974 14.0767 29.4014 7.89482 21.7539 7.89482C14.1043 7.89482 7.91036 14.0767 7.91036 21.7113C7.91036 29.3439 14.1043 35.5277 21.7539 35.5277C25.354 35.5334 28.8138 34.1345 31.3949 31.6295L31.6915 31.3334Z" fill="white"/>
<path d="M27.4204 22.3503H22.5724V27.3183H20.0284V22.3503H15.1804V20.0463H20.0284V15.0783H22.5724V20.0463H27.4204V22.3503Z" fill="white"/>
</svg>
