<svg width="18" height="22" viewBox="0 0 18 22" fill="none" xmlns="http://www.w3.org/2000/svg">
<path d="M9 11.2102C9.61875 11.2102 10.1486 10.9905 10.5896 10.551C11.0299 10.1123 11.25 9.58471 11.25 8.96815C11.25 8.35159 11.0299 7.82359 10.5896 7.38415C10.1486 6.94546 9.61875 6.72611 9 6.72611C8.38125 6.72611 7.85175 6.94546 7.4115 7.38415C6.9705 7.82359 6.75 8.35159 6.75 8.96815C6.75 9.58471 6.9705 10.1123 7.4115 10.551C7.85175 10.9905 8.38125 11.2102 9 11.2102ZM9 22C8.85 22 8.7 21.972 8.55 21.9159C8.4 21.8599 8.26875 21.7851 8.15625 21.6917C5.41875 19.2815 3.375 17.0443 2.025 14.9802C0.675 12.9153 0 10.986 0 9.19236C0 6.38981 0.904875 4.15711 2.71463 2.49427C4.52363 0.831422 6.61875 0 9 0C11.3812 0 13.4764 0.831422 15.2854 2.49427C17.0951 4.15711 18 6.38981 18 9.19236C18 10.986 17.325 12.9153 15.975 14.9802C14.625 17.0443 12.5813 19.2815 9.84375 21.6917C9.73125 21.7851 9.6 21.8599 9.45 21.9159C9.3 21.972 9.15 22 9 22Z" fill="white"/>
</svg>
