<svg width="21" height="26" viewBox="0 0 21 26" fill="none" xmlns="http://www.w3.org/2000/svg">
<path d="M10.4998 13.2484C11.2216 13.2484 11.8398 12.9887 12.3543 12.4694C12.8679 11.9509 13.1248 11.3274 13.1248 10.5987C13.1248 9.87006 12.8679 9.24606 12.3543 8.72673C11.8398 8.20827 11.2216 7.94904 10.4998 7.94904C9.77788 7.94904 9.16013 8.20827 8.64651 8.72673C8.13201 9.24606 7.87476 9.87006 7.87476 10.5987C7.87476 11.3274 8.13201 11.9509 8.64651 12.4694C9.16013 12.9887 9.77788 13.2484 10.4998 13.2484ZM10.4998 26C10.3248 26 10.1498 25.9669 9.97476 25.9006C9.79976 25.8344 9.64663 25.7461 9.51538 25.6357C6.32163 22.7873 3.93726 20.1433 2.36226 17.7038C0.787256 15.2635 -0.000244141 12.9834 -0.000244141 10.8637C-0.000244141 7.55159 1.05544 4.91295 3.16682 2.94777C5.27732 0.98259 7.72163 0 10.4998 0C13.2779 0 15.7222 0.98259 17.8327 2.94777C19.9441 4.91295 20.9998 7.55159 20.9998 10.8637C20.9998 12.9834 20.2123 15.2635 18.6373 17.7038C17.0623 20.1433 14.6779 22.7873 11.4841 25.6357C11.3529 25.7461 11.1998 25.8344 11.0248 25.9006C10.8498 25.9669 10.6748 26 10.4998 26Z" fill="black"/>
</svg>
