<svg width="32" height="32" viewBox="0 0 32 32" fill="none" xmlns="http://www.w3.org/2000/svg">
<path d="M20.3298 21.48L22.5698 19.24C22.8715 18.9421 23.2532 18.7381 23.6686 18.6529C24.0839 18.5677 24.5151 18.6049 24.9098 18.76L27.6398 19.85C28.0386 20.0119 28.3805 20.2882 28.6226 20.6441C28.8646 21.0001 28.9958 21.4196 28.9998 21.85V26.85C28.9974 27.1428 28.9359 27.4321 28.8188 27.7005C28.7018 27.9688 28.5316 28.2107 28.3186 28.4116C28.1056 28.6125 27.8541 28.7682 27.5793 28.8693C27.3046 28.9704 27.0122 29.0149 26.7198 29C7.58977 27.81 3.72977 11.61 2.99977 5.41004C2.96588 5.10558 2.99684 4.79739 3.09062 4.50575C3.18439 4.21411 3.33885 3.94563 3.54383 3.71798C3.74882 3.49032 3.99968 3.30865 4.27993 3.1849C4.56017 3.06116 4.86343 2.99816 5.16977 3.00004H9.99977C10.4308 3.00132 10.8515 3.13151 11.208 3.37387C11.5644 3.61623 11.8401 3.95968 11.9998 4.36004L13.0898 7.09004C13.25 7.48311 13.2909 7.91468 13.2073 8.33085C13.1237 8.74702 12.9194 9.12934 12.6198 9.43004L10.3798 11.67C10.3798 11.67 11.6698 20.4 20.3298 21.48Z" fill="black"/>
</svg>
