<svg width="35" height="35" viewBox="0 0 35 35" fill="none" xmlns="http://www.w3.org/2000/svg">
<path d="M13.1249 7.29133C12.7381 7.29133 12.3672 7.44498 12.0937 7.71847C11.8202 7.99196 11.6666 8.36289 11.6666 8.74967C11.6666 9.13644 11.8202 9.50737 12.0937 9.78086C12.3672 10.0544 12.7381 10.208 13.1249 10.208C13.5117 10.208 13.8826 10.0544 14.1561 9.78086C14.4296 9.50737 14.5833 9.13644 14.5833 8.74967C14.5833 8.36289 14.4296 7.99196 14.1561 7.71847C13.8826 7.44498 13.5117 7.29133 13.1249 7.29133ZM8.99784 7.29133C9.29913 6.43743 9.85787 5.69801 10.597 5.17499C11.3362 4.65196 12.2194 4.37109 13.1249 4.37109C14.0304 4.37109 14.9136 4.65196 15.6528 5.17499C16.392 5.69801 16.9507 6.43743 17.252 7.29133H27.7083C28.095 7.29133 28.466 7.44498 28.7395 7.71847C29.0129 7.99196 29.1666 8.36289 29.1666 8.74967C29.1666 9.13644 29.0129 9.50737 28.7395 9.78086C28.466 10.0544 28.095 10.208 27.7083 10.208H17.252C16.9507 11.0619 16.392 11.8013 15.6528 12.3243C14.9136 12.8474 14.0304 13.1282 13.1249 13.1282C12.2194 13.1282 11.3362 12.8474 10.597 12.3243C9.85787 11.8013 9.29913 11.0619 8.99784 10.208H7.29159C6.90481 10.208 6.53388 10.0544 6.26039 9.78086C5.9869 9.50737 5.83325 9.13644 5.83325 8.74967C5.83325 8.36289 5.9869 7.99196 6.26039 7.71847C6.53388 7.44498 6.90481 7.29133 7.29159 7.29133H8.99784ZM21.8749 16.0413C21.4881 16.0413 21.1172 16.195 20.8437 16.4685C20.5702 16.742 20.4166 17.1129 20.4166 17.4997C20.4166 17.8864 20.5702 18.2574 20.8437 18.5309C21.1172 18.8044 21.4881 18.958 21.8749 18.958C22.2617 18.958 22.6326 18.8044 22.9061 18.5309C23.1796 18.2574 23.3333 17.8864 23.3333 17.4997C23.3333 17.1129 23.1796 16.742 22.9061 16.4685C22.6326 16.195 22.2617 16.0413 21.8749 16.0413ZM17.7478 16.0413C18.0491 15.1874 18.6079 14.448 19.347 13.925C20.0862 13.402 20.9694 13.1211 21.8749 13.1211C22.7804 13.1211 23.6636 13.402 24.4028 13.925C25.142 14.448 25.7007 15.1874 26.002 16.0413H27.7083C28.095 16.0413 28.466 16.195 28.7395 16.4685C29.0129 16.742 29.1666 17.1129 29.1666 17.4997C29.1666 17.8864 29.0129 18.2574 28.7395 18.5309C28.466 18.8044 28.095 18.958 27.7083 18.958H26.002C25.7007 19.8119 25.142 20.5513 24.4028 21.0743C23.6636 21.5974 22.7804 21.8782 21.8749 21.8782C20.9694 21.8782 20.0862 21.5974 19.347 21.0743C18.6079 20.5513 18.0491 19.8119 17.7478 18.958H7.29159C6.90481 18.958 6.53388 18.8044 6.26039 18.5309C5.9869 18.2574 5.83325 17.8864 5.83325 17.4997C5.83325 17.1129 5.9869 16.742 6.26039 16.4685C6.53388 16.195 6.90481 16.0413 7.29159 16.0413H17.7478ZM13.1249 24.7913C12.7381 24.7913 12.3672 24.945 12.0937 25.2185C11.8202 25.492 11.6666 25.8629 11.6666 26.2497C11.6666 26.6364 11.8202 27.0074 12.0937 27.2809C12.3672 27.5544 12.7381 27.708 13.1249 27.708C13.5117 27.708 13.8826 27.5544 14.1561 27.2809C14.4296 27.0074 14.5833 26.6364 14.5833 26.2497C14.5833 25.8629 14.4296 25.492 14.1561 25.2185C13.8826 24.945 13.5117 24.7913 13.1249 24.7913ZM8.99784 24.7913C9.29913 23.9374 9.85787 23.198 10.597 22.675C11.3362 22.152 12.2194 21.8711 13.1249 21.8711C14.0304 21.8711 14.9136 22.152 15.6528 22.675C16.392 23.198 16.9507 23.9374 17.252 24.7913H27.7083C28.095 24.7913 28.466 24.945 28.7395 25.2185C29.0129 25.492 29.1666 25.8629 29.1666 26.2497C29.1666 26.6364 29.0129 27.0074 28.7395 27.2809C28.466 27.5544 28.095 27.708 27.7083 27.708H17.252C16.9507 28.5619 16.392 29.3013 15.6528 29.8243C14.9136 30.3474 14.0304 30.6282 13.1249 30.6282C12.2194 30.6282 11.3362 30.3474 10.597 29.8243C9.85787 29.3013 9.29913 28.5619 8.99784 27.708H7.29159C6.90481 27.708 6.53388 27.5544 6.26039 27.2809C5.9869 27.0074 5.83325 26.6364 5.83325 26.2497C5.83325 25.8629 5.9869 25.492 6.26039 25.2185C6.53388 24.945 6.90481 24.7913 7.29159 24.7913H8.99784Z" fill="#8E8E8E"/>
</svg>
